HIERARCHY
ROOT Hips
{
	OFFSET 2.709451 85.700180 6.243666
	CHANNELS 6 Xposition Yposition Zposition Zrotation Yrotation Xrotation 
	JOINT Spine
	{
		OFFSET -0.000000 8.814246 -2.080107
		CHANNELS 3 Zrotation Yrotation Xrotation
		JOINT Spine1
		{
			OFFSET -0.000000 8.844141 0.000000
			CHANNELS 3 Zrotation Yrotation Xrotation
			JOINT Spine2
			{
				OFFSET -0.000000 11.682268 -0.000000
				CHANNELS 3 Zrotation Yrotation Xrotation
				JOINT Spine3
				{
					OFFSET 0.000000 11.746700 -0.000000
					CHANNELS 3 Zrotation Yrotation Xrotation
					JOINT Neck
					{
						OFFSET -0.000000 17.658264 0.000000
						CHANNELS 3 Zrotation Yrotation Xrotation
						JOINT Neck1
						{
							OFFSET -0.000000 5.101515 0.000000
							CHANNELS 3 Zrotation Yrotation Xrotation
							JOINT Head
							{
								OFFSET -0.000000 5.101515 0.000000
								CHANNELS 3 Zrotation Yrotation Xrotation
								JOINT HeadEnd
								{
									OFFSET -0.000000 11.655085 0.000000
									CHANNELS 3 Zrotation Yrotation Xrotation
									End Site
									{
										OFFSET 0.000000 0.000000 0.000000
									}
								}
							}
						}
					}
					JOINT RightShoulder
					{
						OFFSET -2.625389 11.175210 -0.000000
						CHANNELS 3 Zrotation Yrotation Xrotation
						JOINT RightArm
						{
							OFFSET 0.000000 10.434715 0.000000
							CHANNELS 3 Zrotation Yrotation Xrotation
							JOINT RightForeArm
							{
								OFFSET -0.000000 29.628420 -0.000000
								CHANNELS 3 Zrotation Yrotation Xrotation
								JOINT RightHand
								{
									OFFSET -0.000000 22.857611 0.000000
									CHANNELS 3 Zrotation Yrotation Xrotation
									JOINT RightHandThumb1
									{
										OFFSET -2.867323 3.959563 2.944291
										CHANNELS 3 Zrotation Yrotation Xrotation
										JOINT RightHandThumb2
										{
											OFFSET 0.000000 3.350399 -0.000000
											CHANNELS 3 Zrotation Yrotation Xrotation
											JOINT RightHandThumb3
											{
												OFFSET -0.000000 3.756509 -0.000000
												CHANNELS 3 Zrotation Yrotation Xrotation
												JOINT RightHandThumb4
												{
													OFFSET 0.000000 3.147345 0.000000
													CHANNELS 3 Zrotation Yrotation Xrotation
													End Site
													{
														OFFSET 0.000000 0.000000 0.000000
													}
												}
											}
										}
									}
									JOINT RightHandIndex1
									{
										OFFSET -0.086752 10.030893 2.345280
										CHANNELS 3 Zrotation Yrotation Xrotation
										JOINT RightHandIndex2
										{
											OFFSET -0.000000 4.061090 0.000000
											CHANNELS 3 Zrotation Yrotation Xrotation
											JOINT RightHandIndex3
											{
												OFFSET -0.000000 3.248873 0.000000
												CHANNELS 3 Zrotation Yrotation Xrotation
												JOINT RightHandIndex4
												{
													OFFSET -0.000000 2.639709 0.000000
													CHANNELS 3 Zrotation Yrotation Xrotation
													End Site
													{
														OFFSET 0.000000 0.000000 0.000000
													}
												}
											}
										}
									}
									JOINT RightHandMiddle1
									{
										OFFSET 0.104102 9.502952 0.006768
										CHANNELS 3 Zrotation Yrotation Xrotation
										JOINT RightHandMiddle2
										{
											OFFSET -0.000000 4.568727 -0.000000
											CHANNELS 3 Zrotation Yrotation Xrotation
											JOINT RightHandMiddle3
											{
												OFFSET -0.000000 3.654981 0.000000
												CHANNELS 3 Zrotation Yrotation Xrotation
												JOINT RightHandMiddle4
												{
													OFFSET -0.000000 2.741236 0.000000
													CHANNELS 3 Zrotation Yrotation Xrotation
													End Site
													{
														OFFSET 0.000000 0.000000 0.000000
													}
												}
											}
										}
									}
									JOINT RightHandRing1
									{
										OFFSET 0.086752 8.921708 -2.267442
										CHANNELS 3 Zrotation Yrotation Xrotation
										JOINT RightHandRing2
										{
											OFFSET 0.000000 4.061090 -0.000000
											CHANNELS 3 Zrotation Yrotation Xrotation
											JOINT RightHandRing3
											{
												OFFSET 0.000000 3.654981 -0.000000
												CHANNELS 3 Zrotation Yrotation Xrotation
												JOINT RightHandRing4
												{
													OFFSET 0.000000 2.741236 -0.000000
													CHANNELS 3 Zrotation Yrotation Xrotation
													End Site
													{
														OFFSET 0.000000 0.000000 0.000000
													}
												}
											}
										}
									}
									JOINT RightHandPinky1
									{
										OFFSET -0.173504 7.976997 -4.467199
										CHANNELS 3 Zrotation Yrotation Xrotation
										JOINT RightHandPinky2
										{
											OFFSET -0.000000 3.350399 0.000000
											CHANNELS 3 Zrotation Yrotation Xrotation
											JOINT RightHandPinky3
											{
												OFFSET 0.000000 2.842763 -0.000000
												CHANNELS 3 Zrotation Yrotation Xrotation
												JOINT RightHandPinky4
												{
													OFFSET -0.000000 2.639709 0.000000
													CHANNELS 3 Zrotation Yrotation Xrotation
													End Site
													{
														OFFSET 0.000000 0.000000 0.000000
													}
												}
											}
										}
									}
									JOINT RightForeArmEnd
									{
										OFFSET 0.000000 0.000000 0.000000
										CHANNELS 3 Zrotation Yrotation Xrotation
										End Site
										{
											OFFSET 0.000000 0.000000 0.000000
										}
									}
								}
								JOINT RightArmEnd
								{
									OFFSET 0.000000 0.000000 0.000000
									CHANNELS 3 Zrotation Yrotation Xrotation
									End Site
									{
										OFFSET 0.000000 0.000000 0.000000
									}
								}
							}
						}
					}
					JOINT LeftShoulder
					{
						OFFSET 2.625389 11.175210 0.000000
						CHANNELS 3 Zrotation Yrotation Xrotation
						JOINT LeftArm
						{
							OFFSET -0.000000 10.813635 -0.000000
							CHANNELS 3 Zrotation Yrotation Xrotation
							JOINT LeftForeArm
							{
								OFFSET 0.000000 28.724781 -0.000000
								CHANNELS 3 Zrotation Yrotation Xrotation
								JOINT LeftHand
								{
									OFFSET 0.644384 25.716167 -0.328871
									CHANNELS 3 Zrotation Yrotation Xrotation
									JOINT LeftHandThumb1
									{
										OFFSET 2.867323 3.959563 2.944291
										CHANNELS 3 Zrotation Yrotation Xrotation
										JOINT LeftHandThumb2
										{
											OFFSET -0.000000 3.350399 -0.000000
											CHANNELS 3 Zrotation Yrotation Xrotation
											JOINT LeftHandThumb3
											{
												OFFSET -0.000000 3.756509 -0.000000
												CHANNELS 3 Zrotation Yrotation Xrotation
												JOINT LeftHandThumb4
												{
													OFFSET 0.000000 3.100000 0.000000
													CHANNELS 3 Zrotation Yrotation Xrotation
													End Site
													{
														OFFSET 0.000000 0.000000 0.000000
													}
												}
											}
										}
									}
									JOINT LeftHandIndex1
									{
										OFFSET 0.086752 10.030893 2.345280
										CHANNELS 3 Zrotation Yrotation Xrotation
										JOINT LeftHandIndex2
										{
											OFFSET 0.000000 4.061090 0.000000
											CHANNELS 3 Zrotation Yrotation Xrotation
											JOINT LeftHandIndex3
											{
												OFFSET -0.000000 3.248873 -0.000000
												CHANNELS 3 Zrotation Yrotation Xrotation
												JOINT LeftHandIndex4
												{
													OFFSET 0.000000 2.639709 -0.000000
													CHANNELS 3 Zrotation Yrotation Xrotation
													End Site
													{
														OFFSET 0.000000 0.000000 0.000000
													}
												}
											}
										}
									}
									JOINT LeftHandMiddle1
									{
										OFFSET -0.104102 9.502952 0.006768
										CHANNELS 3 Zrotation Yrotation Xrotation
										JOINT LeftHandMiddle2
										{
											OFFSET -0.000000 4.568727 0.000000
											CHANNELS 3 Zrotation Yrotation Xrotation
											JOINT LeftHandMiddle3
											{
												OFFSET 0.000000 3.654981 0.000000
												CHANNELS 3 Zrotation Yrotation Xrotation
												JOINT LeftHandMiddle4
												{
													OFFSET 0.000000 2.741236 0.000000
													CHANNELS 3 Zrotation Yrotation Xrotation
													End Site
													{
														OFFSET 0.000000 0.000000 0.000000
													}
												}
											}
										}
									}
									JOINT LeftHandRing1
									{
										OFFSET -0.086752 8.921708 -2.267442
										CHANNELS 3 Zrotation Yrotation Xrotation
										JOINT LeftHandRing2
										{
											OFFSET -0.000000 4.061090 -0.000000
											CHANNELS 3 Zrotation Yrotation Xrotation
											JOINT LeftHandRing3
											{
												OFFSET -0.000000 3.654981 0.000000
												CHANNELS 3 Zrotation Yrotation Xrotation
												JOINT LeftHandRing4
												{
													OFFSET -0.000000 2.741236 -0.000000
													CHANNELS 3 Zrotation Yrotation Xrotation
													End Site
													{
														OFFSET 0.000000 0.000000 0.000000
													}
												}
											}
										}
									}
									JOINT LeftHandPinky1
									{
										OFFSET 0.173504 7.976997 -4.467199
										CHANNELS 3 Zrotation Yrotation Xrotation
										JOINT LeftHandPinky2
										{
											OFFSET 0.000000 3.350399 0.000000
											CHANNELS 3 Zrotation Yrotation Xrotation
											JOINT LeftHandPinky3
											{
												OFFSET -0.000000 2.842763 -0.000000
												CHANNELS 3 Zrotation Yrotation Xrotation
												JOINT LeftHandPinky4
												{
													OFFSET -0.000000 2.639709 -0.000000
													CHANNELS 3 Zrotation Yrotation Xrotation
													End Site
													{
														OFFSET 0.000000 0.000000 0.000000
													}
												}
											}
										}
									}
									JOINT LeftForeArmEnd
									{
										OFFSET 0.000000 0.000000 0.000000
										CHANNELS 3 Zrotation Yrotation Xrotation
										End Site
										{
											OFFSET 0.000000 0.000000 0.000000
										}
									}
								}
								JOINT LeftArmEnd
								{
									OFFSET 0.000000 0.000000 0.000000
									CHANNELS 3 Zrotation Yrotation Xrotation
									End Site
									{
										OFFSET 0.000000 0.000000 0.000000
									}
								}
							}
						}
					}
				}
			}
		}
	}
	JOINT RightUpLeg
	{
		OFFSET -11.289943 -0.000000 -0.000000
		CHANNELS 3 Zrotation Yrotation Xrotation
		JOINT RightLeg
		{
			OFFSET 0.000000 -38.200325 -0.000000
			CHANNELS 3 Zrotation Yrotation Xrotation
			JOINT RightFoot
			{
				OFFSET 0.000000 -39.900856 0.000000
				CHANNELS 3 Zrotation Yrotation Xrotation
				JOINT RightToeBase
				{
					OFFSET 0.000000 -0.000000 15.261641
					CHANNELS 3 Zrotation Yrotation Xrotation
					JOINT RightToeBaseEnd
					{
						OFFSET -0.000000 -0.000000 7.370709
						CHANNELS 3 Zrotation Yrotation Xrotation
						End Site
						{
							OFFSET 0.000000 0.000000 0.000000
						}
					}
				}
				JOINT RightLegEnd
				{
					OFFSET 0.000000 0.000000 0.000000
					CHANNELS 3 Zrotation Yrotation Xrotation
					End Site
					{
						OFFSET 0.000000 0.000000 0.000000
					}
				}
			}
			JOINT RightUpLegEnd
			{
				OFFSET 0.000000 0.000000 0.000000
				CHANNELS 3 Zrotation Yrotation Xrotation
				End Site
				{
					OFFSET 0.000000 0.000000 0.000000
				}
			}
		}
	}
	JOINT LeftUpLeg
	{
		OFFSET 11.315661 0.000000 0.000000
		CHANNELS 3 Zrotation Yrotation Xrotation
		JOINT LeftLeg
		{
			OFFSET 0.000000 -38.200325 0.000000
			CHANNELS 3 Zrotation Yrotation Xrotation
			JOINT LeftFoot
			{
				OFFSET 0.000000 -39.900856 -0.000000
				CHANNELS 3 Zrotation Yrotation Xrotation
				JOINT LeftToeBase
				{
					OFFSET 0.000000 -0.000000 15.261641
					CHANNELS 3 Zrotation Yrotation Xrotation
					JOINT LeftToeBaseEnd
					{
						OFFSET 0.000000 -0.000000 7.539996
						CHANNELS 3 Zrotation Yrotation Xrotation
						End Site
						{
							OFFSET 0.000000 0.000000 0.000000
						}
					}
				}
				JOINT LeftLegEnd
				{
					OFFSET 0.000000 0.000000 0.000000
					CHANNELS 3 Zrotation Yrotation Xrotation
					End Site
					{
						OFFSET 0.000000 0.000000 0.000000
					}
				}
			}
			JOINT LeftUpLegEnd
			{
				OFFSET 0.000000 0.000000 0.000000
				CHANNELS 3 Zrotation Yrotation Xrotation
				End Site
				{
					OFFSET 0.000000 0.000000 0.000000
				}
			}
		}
	}
}
MOTION
Frames: 5
Frame Time: 0.016667
2.709451 85.700180 6.243666 8.118533 2.231339 -15.266155 -4.895700 1.532176 8.012950 1.368793 0.377297 3.495439 -6.344624 8.236979 4.944189 -5.621113 2.061758 2.320051 -8.083249 0.630833 3.384477 -0.095530 -3.630206 -4.265481 1.959012 0.785418 -19.559490 0.000000 0.000000 0.000000 93.124420 -0.499814 9.334345 70.315811 -35.731457 5.800947 0.375409 7.247231 27.694233 0.141914 1.743976 -5.670359 0.028080 -0.028043 44.961143 0.000000 0.000000 -0.027183 0.000000 0.000000 -0.027183 0.000000 0.000000 0.000000 18.391205 16.875570 -7.087955 13.755702 -0.499559 -4.147399 13.755641 0.471761 -3.909617 0.000000 0.000000 0.000000 17.809639 6.912130 -9.096036 13.167036 -0.815404 -1.599540 13.165730 0.158310 -1.371760 0.000000 0.000000 0.000000 20.847996 -8.817627 -11.598436 13.237169 1.760119 2.068239 13.230886 -0.186777 1.610361 0.000000 0.000000 0.000000 24.541409 -25.178782 -15.406027 11.595844 3.447015 5.453380 11.574974 -0.471555 4.649950 0.000000 0.000000 0.000000 0.000000 0.000000 0.000000 0.000000 0.000000 0.000000 -94.762085 0.806580 9.200502 -53.358204 42.268986 1.875268 -1.878485 -15.110047 38.565163 -14.352144 -13.043102 -10.162531 -0.007791 0.007802 45.036652 0.000000 0.000000 0.000000 0.000000 0.000000 0.000000 0.000000 0.000000 0.000000 -27.354898 17.020872 -2.066186 -17.975239 -0.147553 5.385928 -17.977005 0.803635 5.077304 0.000000 0.000000 0.000000 -23.888134 6.994313 -4.363635 -16.259134 -0.719143 1.966157 -16.257967 0.240867 1.686186 0.000000 0.000000 0.000000 -18.871660 -8.975219 -4.848847 -13.642550 1.745267 -2.130423 -13.636184 -0.198343 -1.658783 0.000000 0.000000 0.000000 -11.959477 -25.822477 -7.673276 -9.951443 3.592640 -4.686633 -9.931871 -0.347343 -3.995910 0.000000 0.000000 0.000000 0.000000 0.000000 0.000000 0.000000 0.000000 0.000000 -23.971184 -18.614492 -6.711787 -0.431873 -0.681040 32.381256 6.826602 -17.884562 20.343512 -2.645149 -0.223495 -20.085518 0.000000 0.000000 0.000000 0.000000 0.000000 0.000000 0.000000 0.000000 0.000000 -9.776361 13.420796 14.986087 0.118803 0.474486 12.491449 6.527535 20.738485 10.714012 0.040879 -0.521387 -17.967049 0.000000 0.000000 0.000000 0.000000 0.000000 0.000000 0.000000 0.000000 0.000000 
2.739578 85.575272 6.157366 7.141131 2.108898 -16.056007 -4.875466 1.589724 7.025687 2.617930 -0.174373 4.723104 -8.349153 7.143894 6.031511 -1.229729 0.995937 3.921295 -7.625405 1.667146 1.655981 0.373486 -0.995258 -6.092400 0.234008 -0.251819 -19.539614 0.000000 0.000000 0.000000 93.359238 -0.522817 9.984801 65.873459 -36.812122 8.099711 -0.291092 7.605265 28.685768 -5.287062 0.076402 -7.471737 0.981208 -0.173815 44.617409 -0.000025 0.000008 -2.355281 0.000008 0.000021 -1.814722 -0.000028 0.000007 0.000005 20.412987 16.851089 -7.125443 14.172609 -0.600988 -3.265453 14.178632 0.396959 -3.056813 -0.000029 -0.000008 0.000002 19.126629 7.002672 -8.503636 13.145515 -0.843074 -1.276300 13.157614 0.143782 -1.114401 -0.000016 0.000020 0.000023 20.112146 -9.097891 -8.679074 12.817423 1.808627 1.656505 12.725375 -0.160520 1.264663 0.000018 -0.000454 0.000012 21.011202 -26.122356 -9.958218 11.183039 3.478972 4.277375 10.956118 -0.441081 3.633612 -0.000469 0.000005 0.000033 0.000000 0.000000 0.000000 0.000000 0.000000 0.000000 -92.950150 0.701506 9.894459 -57.334366 36.035202 -0.059744 -0.917754 -12.006904 39.169792 -13.129359 -12.598535 -9.217426 -2.133693 0.180546 44.297142 -0.000017 0.000008 -4.609652 0.000049 -0.000013 -3.576010 -0.000086 -0.000042 0.001783 -28.783133 17.363626 -4.419373 -18.065325 -0.502945 3.828227 -18.074125 0.477010 3.538884 0.000046 0.000662 0.000014 -24.958254 7.201081 -5.285775 -17.032906 -0.830173 1.486508 -16.917511 0.151142 1.266423 0.000189 -0.000044 -0.000111 -20.553375 -9.277052 -5.515547 -15.131783 1.769750 -2.006947 -15.253434 -0.194124 -1.531200 -0.000345 -0.000033 -0.000030 -13.777391 -26.559967 -7.970398 -11.781412 3.416882 -5.328060 -11.839114 -0.546591 -4.521170 0.000642 -0.000015 -0.000033 0.000000 0.000000 0.000000 0.000000 0.000000 0.000000 -23.458218 -13.103577 -5.887122 -0.483128 -1.088479 29.605587 7.833860 -21.739008 20.578421 -2.579087 -0.301065 -19.142727 0.000000 0.000000 0.000000 0.000000 0.000000 0.000000 0.000000 0.000000 0.000000 -7.953483 16.005104 17.373833 0.104276 0.543782 10.593243 6.323730 18.018110 12.546381 -0.110972 -0.535576 -17.200909 0.000000 0.000000 0.000000 0.000000 0.000000 0.000000 0.000000 0.000000 0.000000 
2.806107 85.609566 6.085000 7.002090 1.891227 -16.302422 -4.785795 1.594760 7.194013 2.619443 -0.141284 4.599789 -8.088393 7.045557 6.444904 -1.156034 1.053822 4.055576 -7.625405 1.792333 1.964337 0.392599 -0.988340 -5.765369 0.211665 -0.228069 -19.657677 0.000000 0.000000 0.000000 93.287689 -0.449824 9.843294 65.726807 -37.600395 8.258494 -0.278591 7.272769 28.599670 -5.423107 -0.225981 -7.452239 0.937264 -0.190675 44.600620 -0.000016 0.000007 -2.393631 0.000015 0.000030 -1.784933 0.000009 0.000014 -0.000017 20.061392 16.762276 -6.949566 13.965490 -0.594237 -3.314420 13.955218 0.403616 -3.103018 -0.000022 0.000013 -0.000004 18.647196 6.964788 -8.301985 12.857879 -0.838166 -1.292009 12.870988 0.145318 -1.125623 0.000010 -0.000019 0.000023 19.503458 -9.039621 -8.604754 12.384291 1.802362 1.668710 12.300111 -0.160726 1.274487 -0.000003 -0.000146 -0.000031 20.117382 -26.024857 -9.854773 10.694341 3.474636 4.292753 10.451831 -0.436271 3.650272 -0.000446 0.000022 0.000013 0.000000 0.000000 0.000000 0.000000 0.000000 0.000000 -92.728577 0.720222 9.937013 -56.870216 36.387547 0.242072 -0.797896 -11.990832 40.355721 -13.069164 -11.533863 -9.353634 -2.157442 0.197747 44.260170 0.000013 0.000014 -4.754488 0.000046 0.000004 -3.665806 -0.000037 -0.000005 0.001588 -28.978428 17.301336 -4.501225 -18.153561 -0.490990 3.890131 -18.152235 0.486774 3.592529 0.000053 0.000528 0.000009 -25.104052 7.168584 -5.336534 -17.082609 -0.823385 1.505295 -16.986271 0.154492 1.283950 0.000138 -0.000037 -0.000171 -20.884687 -9.224897 -5.522699 -15.302977 1.753567 -2.034780 -15.415941 -0.198946 -1.550097 -0.000255 0.000000 -0.000011 -14.353380 -26.440096 -7.877102 -11.954755 3.383481 -5.430069 -12.033583 -0.562011 -4.604055 0.000749 0.000012 -0.000042 0.000000 0.000000 0.000000 0.000000 0.000000 0.000000 -23.294119 -13.077013 -5.721983 -0.468309 -1.067745 29.158079 7.737386 -21.664291 20.770489 -2.583362 -0.294608 -19.101723 0.000000 0.000000 0.000000 0.000000 0.000000 0.000000 0.000000 0.000000 0.000000 -7.697922 16.308701 17.638283 0.103769 0.540403 10.319989 6.265000 18.102085 12.634701 -0.112334 -0.561869 -17.104830 0.000000 0.000000 0.000000 0.000000 0.000000 0.000000 0.000000 0.000000 0.000000 
2.860592 85.626022 6.014890 6.857640 1.669145 -16.465788 -4.682825 1.581583 7.338765 2.628050 -0.121306 4.422614 -7.863287 6.930495 6.801908 -1.112775 1.094091 4.134099 -7.603364 1.902134 2.207527 0.414441 -0.960005 -5.564373 0.182008 -0.222711 -19.826244 0.000000 0.000000 0.000000 93.211777 -0.392763 9.648373 65.650856 -38.125015 8.390903 -0.266946 7.089387 28.452528 -5.216368 -0.387888 -7.367498 0.929485 -0.197728 44.590973 -0.000009 0.000007 -2.450366 0.000008 0.000034 -1.782789 0.000011 0.000013 -0.000016 19.917494 16.748980 -6.847512 13.933786 -0.578645 -3.350974 13.906544 0.418276 -3.133386 -0.000019 0.000012 -0.000005 18.443048 6.962709 -8.133866 12.785145 -0.831564 -1.302653 12.797269 0.149882 -1.132825 0.000011 -0.000040 0.000027 19.223593 -9.034551 -8.418434 12.204419 1.790688 1.679371 12.126632 -0.166548 1.283652 -0.000002 0.000120 -0.000034 19.650372 -26.028179 -9.594695 10.455489 3.448455 4.312100 10.194022 -0.455171 3.670921 -0.000427 0.000024 -0.000010 0.000000 0.000000 0.000000 0.000000 0.000000 0.000000 -92.538017 0.717147 9.855062 -56.535641 36.402554 0.355027 -0.688470 -12.171327 41.863636 -13.184801 -10.457431 -9.527458 -2.134264 0.210780 44.240051 0.000012 0.000014 -4.783757 0.000039 0.000005 -3.683946 -0.000022 0.000002 0.001432 -28.849092 17.267229 -4.621893 -18.053417 -0.487911 3.867282 -18.042027 0.488610 3.573392 0.000051 0.000532 0.000009 -24.975636 7.147911 -5.474272 -16.975054 -0.820191 1.494958 -16.895018 0.154530 1.277325 0.000012 -0.000039 -0.000230 -20.946583 -9.183037 -5.694324 -15.301974 1.744390 -2.021658 -15.423536 -0.199992 -1.541424 -0.000093 0.000004 -0.000007 -14.568009 -26.332722 -8.035151 -11.980691 3.365080 -5.408200 -12.094144 -0.566116 -4.591341 0.000836 0.000013 -0.000042 0.000000 0.000000 0.000000 0.000000 0.000000 0.000000 -23.044987 -12.986897 -5.691101 -0.458600 -1.059746 28.842722 7.573581 -21.615673 20.936853 -2.586406 -0.290661 -19.117640 0.000000 0.000000 0.000000 0.000000 0.000000 0.000000 0.000000 0.000000 0.000000 -7.473497 16.509727 17.717033 0.102518 0.545219 10.256200 6.209800 18.187645 12.591404 -0.107929 -0.581397 -17.031761 0.000000 0.000000 0.000000 0.000000 0.000000 0.000000 0.000000 0.000000 0.000000 
2.913471 85.627724 5.939447 6.751206 1.453168 -16.586512 -4.598670 1.552343 7.454650 2.604318 -0.117346 4.274021 -7.647374 6.730525 7.067640 -1.081444 1.090793 4.226267 -7.532177 2.014816 2.366088 0.434100 -0.866090 -5.448030 0.145204 -0.221945 -19.999949 0.000000 0.000000 0.000000 93.180000 -0.375944 9.442144 65.621063 -38.421719 8.439481 -0.268597 7.068274 28.376354 -4.847995 -0.376615 -7.082723 0.927143 -0.198686 44.589931 -0.000002 0.000006 -2.475986 0.000005 0.000034 -1.783135 0.000011 0.000013 -0.000016 19.885649 16.760063 -6.739152 13.950650 -0.556366 -3.375535 13.910154 0.438712 -3.149724 -0.000016 0.000013 -0.000006 18.378117 6.973098 -7.967623 12.777534 -0.823593 -1.308045 12.784076 0.156182 -1.135199 0.000011 -0.000054 0.000029 19.060352 -9.049951 -8.157615 12.101538 1.775218 1.684508 12.020014 -0.175260 1.288548 -0.000001 0.000248 -0.000035 19.346771 -26.067694 -9.258064 10.279055 3.407231 4.323440 10.012368 -0.487650 3.683423 -0.000419 0.000024 -0.000028 0.000000 0.000000 0.000000 0.000000 0.000000 0.000000 -92.390587 0.704923 9.792765 -56.227318 36.181000 0.499694 -0.594026 -12.372991 43.301811 -13.083694 -9.587637 -9.907830 -2.058841 0.217489 44.242844 0.000012 0.000014 -4.665253 0.000038 0.000002 -3.601610 0.000025 0.000004 0.001406 -28.404680 17.252434 -4.716938 -17.775826 -0.487626 3.791887 -17.758011 0.488063 3.506462 0.000050 0.000535 0.000008 -24.571117 7.135677 -5.615436 -16.708078 -0.818294 1.466083 -16.641693 0.153054 1.254353 -0.000131 -0.000040 -0.000272 -20.706997 -9.153382 -5.904299 -15.122850 1.737668 -1.985603 -15.251245 -0.199929 -1.516591 0.000011 0.000005 -0.000007 -14.424026 -26.243412 -8.297437 -11.832470 3.348202 -5.322588 -11.976390 -0.568997 -4.525571 0.000925 0.000012 -0.000041 0.000000 0.000000 0.000000 0.000000 0.000000 0.000000 -22.836170 -12.820832 -5.694541 -0.453971 -1.059397 28.619255 7.429579 -21.615177 21.070850 -2.589352 -0.288197 -19.151840 0.000000 0.000000 0.000000 0.000000 0.000000 0.000000 0.000000 0.000000 0.000000 -7.334743 16.598898 17.697227 0.099943 0.546851 10.349104 6.202082 18.262541 12.493411 -0.113917 -0.591484 -16.977968 0.000000 0.000000 0.000000 0.000000 0.000000 0.000000 0.000000 0.000000 0.000000 
